<svg xmlns="http://www.w3.org/2000/svg" width="43.009" height="45" viewBox="0 0 43.009 45">
  <g id="对话蓝" transform="translate(-104 -67.3)">
    <path id="路径_1" data-name="路径 1" d="M179.291,570.8v4.581a8.8,8.8,0,0,1-8.763,8.774h-2.584l.241,4.036.037.477c.021.335-.22.535-.535.288l-6.562-4.8h-7.662a8.8,8.8,0,0,1-8.763-8.774v-4.555c4.879,2.516,9.182,3.768,17.6,3.627C170.7,574.322,174.307,573.069,179.291,570.8Z" transform="translate(-38.567 -477.111)" fill="#feeb5b"/>
    <path id="路径_2" data-name="路径 2" d="M128.707,218.62a1.9,1.9,0,0,1-1.137-.4l-6.153-4.513h-7.191A10.236,10.236,0,0,1,104,203.483V189.715A10.23,10.23,0,0,1,114.225,179.5H131.28a10.23,10.23,0,0,1,10.225,10.215v13.774a10.236,10.236,0,0,1-10.225,10.225h-1.043l.189,2.956a.178.178,0,0,0,.005.052,1.809,1.809,0,0,1-.938,1.7,1.693,1.693,0,0,1-.786.194Zm.577-2.736.01.01ZM114.225,182.4a7.329,7.329,0,0,0-7.327,7.317v13.774a7.334,7.334,0,0,0,7.327,7.327h7.662a1.459,1.459,0,0,1,.854.278l4.638,3.4-.136-2.138a1.457,1.457,0,0,1,.388-1.085,1.438,1.438,0,0,1,1.059-.456h2.584a7.334,7.334,0,0,0,7.327-7.327V189.715a7.329,7.329,0,0,0-7.327-7.317Z" transform="translate(0 -106.319)" fill="#fff"/>
    <path id="路径_3" data-name="路径 3" d="M330.548,95a1.45,1.45,0,0,1-1.368-1.934c.084-.241.189-.5.294-.77a7.48,7.48,0,0,0,.5-1.551l-.393-13.4a7.2,7.2,0,0,0-7.107-7.149h-17.49c-.975,0-1.887.5-1.955.912a1.448,1.448,0,0,1-2.862-.451c.346-2.18,2.741-3.354,4.817-3.354h17.495a10.09,10.09,0,0,1,10.005,9.963l.393,13.422a7.3,7.3,0,0,1-.708,2.683c-.094.236-.183.461-.257.671A1.455,1.455,0,0,1,330.548,95ZM314.83,87.835H303.179a1.447,1.447,0,0,1,0-2.893H314.83a1.447,1.447,0,0,1,0,2.893Zm-2.411,8.3h-7.175a1.447,1.447,0,1,1,0-2.893h7.175a1.447,1.447,0,0,1,0,2.893Z" transform="translate(-185.872)" fill="#fff"/>
  </g>
</svg>
